<svg xmlns="http://www.w3.org/2000/svg" viewBox="0 0 640 360" role="img" aria-labelledby="title desc">
  <title id="title">岩手県</title>
  <desc id="desc">岩手山、北上川、三陸の海を表したイラスト</desc>
  <defs>
    <linearGradient id="sky" x1="0" y1="0" x2="0" y2="1">
      <stop offset="0" stop-color="#dbeafe"/>
      <stop offset="1" stop-color="#ecfdf5"/>
    </linearGradient>
    <linearGradient id="sea" x1="0" y1="0" x2="1" y2="0">
      <stop offset="0" stop-color="#0f766e"/>
      <stop offset="1" stop-color="#38bdf8"/>
    </linearGradient>
  </defs>
  <rect width="640" height="360" rx="28" fill="url(#sky)"/>
  <circle cx="526" cy="78" r="38" fill="#fbbf24" opacity=".9"/>
  <path d="M50 263 194 86l70 91 54-68 132 154Z" fill="#166534"/>
  <path d="m194 86 31 40-28-8-25 12Z" fill="#f8fafc"/>
  <path d="M0 278c102-42 158 46 264 4s169-61 376-3v81H0Z" fill="url(#sea)"/>
  <path d="M322 240c-31 20-50 41-54 69" fill="none" stroke="#bae6fd" stroke-width="13" stroke-linecap="round"/>
  <path d="M426 285c24-20 49-20 73 0s48 20 72 0" fill="none" stroke="#e0f2fe" stroke-width="8" stroke-linecap="round"/>
  <text x="42" y="52" fill="#134e4a" font-family="sans-serif" font-size="30" font-weight="700">岩手県</text>
</svg>
